PathFileType	4	(X/Y/Z)	D:\Share\Shared_Data\Ergonomics\Sit To Stand Pertubation\S0\Free STS.trc
DataRate	CameraRate	NumFrames	NumMarkers	Units	OrigDataRate	OrigDataStartFrame	OrigNumFrames	
100	100	11	18	m	100	3396	211
Frame#	Time	R_Toe			R_ASIS			R_Pelvis			V_Sacral			L_Pelvis			L_ASIS			Clavical			R_Acromium			L_Acromium			Sternum			Torso			R_Thigh_Med			R_Thigh_Lat			R_Thigh			R_Shank_Med			R_Shank_Lat			R_Shank			R_Heel			
		X1	Y1	Z1	X2	Y2	Z2	X3	Y3	Z3	X4	Y4	Z4	X5	Y5	Z5	X6	Y6	Z6	X7	Y7	Z7	X8	Y8	Z8	X9	Y9	Z9	X10	Y10	Z10	X11	Y11	Z11	X12	Y12	Z12	X13	Y13	Z13	X14	Y14	Z14	X15	Y15	Z15	X16	Y16	Z16	X17	Y17	Z17	X18	Y18	Z18	

3396	20.38	0.37978448	0.044254261	0.1416851	0.29848944	0.97239014	0.15624231	0.1838089	1.0131542	0.20302969	0.06059116	1.0312188	-0.025758095	0.19762134	0.99586505	-0.20870477	0.30760284	0.9529198	-0.15761754	0.4320267	1.3739108	-0.012175261	0.36845306	1.4512015	0.12961777	0.35528412	1.4607021	-0.15720021	0.44243729	1.2765848	-0.030109526	0.42335129	1.3295023	-0.13531044	0.33857376	0.4843443	0.057689651	0.33214032	0.50832178	0.18703479	0.38563092	0.65140076	0.11960703	0.2549552	0.098537613	0.10292219	0.19841522	0.09071907	0.19288622	0.26534122	0.31254309	0.20759007	0.15564072	0.046968903	0.1500303
3397	20.39	0.37980576	0.044258064	0.14175374	0.30175082	0.97493689	0.15619629	0.18667509	1.014785	0.20302388	0.063476303	1.0323221	-0.025709368	0.20051538	0.99759778	-0.20865894	0.3109086	0.95555206	-0.15774068	0.43059567	1.3786401	-0.011993717	0.36603726	1.4552366	0.12994426	0.35286438	1.4647336	-0.15716307	0.44216302	1.2814327	-0.030020393	0.42239865	1.3342026	-0.13523174	0.33735837	0.48468018	0.05731842	0.33093887	0.50881131	0.1865392	0.38582837	0.65126776	0.11921962	0.25500101	0.098631271	0.1028902	0.19830161	0.090774345	0.19278703	0.26446924	0.31283139	0.20729094	0.15563008	0.047035652	0.14999051
3398	20.4	0.37982916	0.044261822	0.14181808	0.30498495	0.97738123	0.15616884	0.18949977	1.0163177	0.20302223	0.066322281	1.0333341	-0.02565873	0.20338521	0.99924121	-0.20860371	0.31417993	0.95809229	-0.15784622	0.42914185	1.3831927	-0.011796366	0.36361099	1.4591055	0.13027469	0.35044498	1.4685746	-0.15711014	0.44184897	1.2861171	-0.029906483	0.42142825	1.3387325	-0.13512886	0.33606967	0.4849837	0.056919174	0.32974799	0.50929697	0.18601501	0.38601651	0.65113055	0.11878866	0.25503477	0.098723251	0.10285416	0.19819254	0.090833351	0.19267831	0.26360416	0.31312228	0.20697534	0.15561967	0.047106049	0.14995247
3399	20.41	0.37985455	0.044264851	0.14187808	0.30819733	0.9797265	0.15616385	0.19227823	1.0177507	0.20302324	0.069124855	1.0342543	-0.025603987	0.20622357	1.0007933	-0.20853925	0.3173985	0.96053192	-0.15793195	0.42766812	1.3875642	-0.011583254	0.36118124	1.4628048	0.13060782	0.34803363	1.4722236	-0.15703812	0.44149658	1.2906327	-0.029767042	0.42044238	1.3430869	-0.13500423	0.33474207	0.48526965	0.056492016	0.32856888	0.50977844	0.18546336	0.38620728	0.65099426	0.11831958	0.25504544	0.098809486	0.10281478	0.19808778	0.090894539	0.1925607	0.2627442	0.31341541	0.2066456	0.15561604	0.047175224	0.14991545
3400	20.42	0.37988153	0.044266613	0.14193387	0.31139246	0.98197461	0.15618459	0.19500581	1.0190841	0.20302728	0.071880226	1.035083	-0.025543037	0.2090235	1.002251	-0.20846387	0.32055396	0.96286621	-0.1579973	0.42617786	1.3917502	-0.01135563	0.35875363	1.4663307	0.13094185	0.34563684	1.4756797	-0.15694585	0.44110742	1.2949745	-0.02960272	0.41944238	1.3472611	-0.13486134	0.33340686	0.48555362	0.056037708	0.3273999	0.5102551	0.18488788	0.38640771	0.65086084	0.11781711	0.25502908	0.098887558	0.10277244	0.19798703	0.090955643	0.19243607	0.26188474	0.31371057	0.20630544	0.15562663	0.047237053	0.14987761
3401	20.43	0.37990933	0.04426683	0.14198604	0.31456763	0.98412482	0.15623271	0.19767737	1.0203193	0.203037	0.074585419	1.0358201	-0.025474966	0.21177878	1.0036122	-0.20837543	0.32364148	0.96509265	-0.15804382	0.42467447	1.395748	-0.011115213	0.35633246	1.4696807	0.13127519	0.34325861	1.4789429	-0.15683461	0.44068246	1.2991382	-0.029415251	0.41842844	1.3512498	-0.13470407	0.3320791	0.48584476	0.055558605	0.32623822	0.51072473	0.18429454	0.38662146	0.65072992	0.11728588	0.25498799	0.098956879	0.10272761	0.19788968	0.09101403	0.19230737	0.26102158	0.31400665	0.20595964	0.15565685	0.047285751	0.14983649
3402	20.44	0.37993732	0.044265545	0.14203569	0.31770297	0.98617285	0.15630852	0.20028749	1.0214585	0.20305646	0.077238274	1.0364653	-0.025400778	0.21448409	1.0048755	-0.20827293	0.3266593	0.967211	-0.158075	0.42316092	1.3995558	-0.010863646	0.35392108	1.4728534	0.13160704	0.34090085	1.4820138	-0.15670731	0.44022202	1.3031207	-0.029206793	0.41739865	1.3550494	-0.13453506	0.33076184	0.48614566	0.055059608	0.32508154	0.51118427	0.18369142	0.38684766	0.65059784	0.11673154	0.2549274	0.099018158	0.10268162	0.19779486	0.091067261	0.19217827	0.2601528	0.31430176	0.20561368	0.15570703	0.047318188	0.14979041
3403	20.45	0.37996497	0.044263138	0.14208408	0.32076337	0.98811115	0.15641087	0.20283174	1.0225027	0.20308849	0.079837112	1.0370182	-0.025323387	0.2171356	1.006042	-0.20815756	0.32960785	0.96922266	-0.15809605	0.42163916	1.4031731	-0.010602277	0.35152246	1.4758494	0.13193784	0.33856366	1.4848938	-0.15656679	0.43972598	1.3069204	-0.028979387	0.41634906	1.358657	-0.13435513	0.32945517	0.48645453	0.054548347	0.32392981	0.51163019	0.18308771	0.38707779	0.65045856	0.1161618	0.25485342	0.099072968	0.10263672	0.1977016	0.091113731	0.19205252	0.25927985	0.31459308	0.20527339	0.15577122	0.047335739	0.14973996
3404	20.46	0.37999228	0.044260284	0.14213249	0.32371869	0.98993457	0.15653754	0.20530777	1.0234523	0.2031328	0.082379639	1.0374791	-0.025246567	0.21973109	1.0071141	-0.20803238	0.33248944	0.97113171	-0.15811368	0.42011063	1.4066001	-0.010332083	0.34913937	1.4786697	0.13226892	0.33624585	1.4875844	-0.1564153	0.43919504	1.310536	-0.028734955	0.41527444	1.362071	-0.13416377	0.32816138	0.48676682	0.054034714	0.32278561	0.5120589	0.18249225	0.38729794	0.65030499	0.11558669	0.25477177	0.099123474	0.10259566	0.19760901	0.091152893	0.19193341	0.25840826	0.31487769	0.20494402	0.15583955	0.047343655	0.14968802
3405	20.47	0.3800195	0.044257778	0.14218192	0.32656171	0.9916438	0.1566846	0.20771518	1.0243064	0.20318556	0.084861603	1.0378496	-0.025173563	0.22226917	1.0080958	-0.20790083	0.3353082	0.97294507	-0.15813521	0.41857639	1.4098384	-0.010053844	0.34677438	1.4813151	0.13260219	0.3339455	1.4900879	-0.15625429	0.43863022	1.3139685	-0.028475492	0.41417035	1.3652919	-0.13396051	0.32688635	0.48707657	0.053529987	0.32165417	0.51246844	0.18191225	0.38749631	0.65013141	0.11501834	0.25468745	0.099172127	0.10256081	0.19751614	0.091185326	0.1918228	0.25754608	0.31515381	0.20462912	0.15590364	0.047348	0.14963815
3406	20.48	0.38004709	0.044256336	0.14223309	0.32930197	0.99324237	0.15684691	0.2100553	1.0250636	0.20324072	0.087276985	1.0381332	-0.025106333	0.22474901	1.0089928	-0.20776556	0.33806964	0.97467194	-0.15816797	0.41703748	1.4128904	-0.0097684546	0.34442957	1.4837874	0.13293929	0.3316608	1.4924075	-0.15608482	0.43803305	1.3172191	-0.028203217	0.41303439	1.3683214	-0.13374594	0.32563812	0.48737759	0.053045437	0.32054187	0.51285846	0.18135245	0.38766763	0.64993549	0.1144697	0.25460475	0.099221123	0.10253348	0.19742232	0.091212318	0.19172124	0.25670135	0.31542126	0.20433032	0.15595938	0.047353134	0.14959265
